# xmcd
#
# Track frame offsets:
#	150
#	25207
#	44052
#	60087
#	83872
#	106067
#	122875
#	142112
#	158547
#	171767
#	192142
#	206365
#	221440
#	237760
#	253337
#
# Disc length: 3676 seconds
#
# Revision: 1
# Processed by: cddbd v1.5.1PL0 Copyright (c) Steve Scherf et al.
# Submitted via: CDex 1.50Beta5
#
DISCID=ca0e5a0f
DTITLE=Various Artist - NEW MUSIC BEST COLLECTION 03
DYEAR=1900
DGENRE=Pop
TTITLE0=長渕剛/乾杯
TTITLE1=長渕剛/ろくなもんじゃねぇ
TTITLE2=忌野清志郎/パパの歌
TTITLE3=高野寛&田島貴男fromオリジナル・ラブ/Winter's Tale〜冬物語〜
TTITLE4=オリジナル・ラブ/月の裏で会いましょう
TTITLE5=オフコース/愛を止めないで
TTITLE6=オフコース/YES-YES-YES
TTITLE7=チューリップ/心の旅
TTITLE8=チューリップ/夢中さ君に
TTITLE9=チューリップ/虹とスニーカーの頃
TTITLE10=チューリップ/魔法の黄色い靴
TTITLE11=長渕剛/順子
TTITLE12=佐藤隆/マイ・クラシック
TTITLE13=オフコース/僕の贈りもの
TTITLE14=オフコース/さよなら
EXTD=
EXTT0=
EXTT1=
EXTT2=
EXTT3=
EXTT4=
EXTT5=
EXTT6=
EXTT7=
EXTT8=
EXTT9=
EXTT10=
EXTT11=
EXTT12=
EXTT13=
EXTT14=
PLAYORDER=
